<svg xmlns="http://www.w3.org/2000/svg" width="610" height="160" viewBox="0 0 610 160" role="img" aria-labelledby="title desc">
<title id="title">TRÚC wordmark — dark</title>
<desc id="desc">Outlined vector wordmark with a gold acute accent and terminal dot.</desc>
<path d="M38.376953125 55.291015625H62.634765625V122.0H76.71484375V55.291015625H100.919921875V43.42578125H38.376953125Z" fill="#FFFFFF"/>
<path d="M119.20703125 122.0H133.287109375V93.154296875H147.947265625L163.3984375 122.0H179.166015625L162.1328125 90.78125C171.4140625 87.08984375 176.265625 79.232421875 176.265625 68.580078125C176.265625 53.603515625 166.66796875 43.42578125 148.580078125 43.42578125H119.20703125ZM133.287109375 81.5V55.23828125H146.41796875C157.123046875 55.23828125 161.869140625 60.1953125 161.869140625 68.580078125C161.869140625 76.912109375 157.123046875 81.5 146.5234375 81.5Z" fill="#FFFFFF"/>
<path d="M227.51171875 123.16015625C246.654296875 123.16015625 259.36328125 111.55859375 259.36328125 94.736328125V43.42578125H245.283203125V93.576171875C245.283203125 103.4375 238.375 110.556640625 227.51171875 110.556640625C216.6484375 110.556640625 209.740234375 103.4375 209.740234375 93.576171875V43.42578125H195.66015625V94.736328125C195.66015625 111.55859375 208.263671875 123.16015625 227.51171875 123.16015625Z" fill="#FFFFFF"/>
<path d="M314.6171875 123.0546875C333.1796875 123.0546875 345.625 110.873046875 347.787109375 95.84375H333.548828125C331.755859375 105.125 324.162109375 110.451171875 314.775390625 110.451171875C302.013671875 110.451171875 292.78515625 100.80078125 292.78515625 82.765625C292.78515625 64.94140625 301.9609375 54.974609375 314.828125 54.974609375C324.21484375 54.974609375 331.80859375 60.30078125 333.548828125 69.58203125H347.734375C345.255859375 52.390625 331.861328125 42.37109375 314.6171875 42.37109375C294.103515625 42.37109375 278.65234375 57.34765625 278.65234375 82.765625C278.65234375 108.078125 293.9453125 123.0546875 314.6171875 123.0546875Z" fill="#FFFFFF"/>
<path d="M 229.43 20.48 L 246.71 2.12" stroke="#D4A75A" stroke-width="10.80" stroke-linecap="square"/>
<circle cx="370.08" cy="109.04" r="7.02" fill="#D4A75A"/>
</svg>
