<svg xmlns="http://www.w3.org/2000/svg" width="700" height="236" viewBox="0 0 700 236" role="img" aria-labelledby="title desc">
<title id="title">TRÚC primary logo lockup — dark</title>
<desc id="desc">Primary website logo with personal name and Data, Systems, Product descriptor.</desc>
<path d="M44.2958984375 56.5263671875H68.1044921875V122.0H81.923828125V56.5263671875H105.6806640625V44.880859375H44.2958984375Z" fill="#FFFFFF"/>
<path d="M123.740234375 122.0H137.5595703125V93.6884765625H151.9482421875L167.11328125 122.0H182.5888671875L165.87109375 91.359375C174.98046875 87.736328125 179.7421875 80.0244140625 179.7421875 69.5693359375C179.7421875 54.8701171875 170.322265625 44.880859375 152.5693359375 44.880859375H123.740234375ZM137.5595703125 82.25V56.474609375H150.447265625C160.9541015625 56.474609375 165.6123046875 61.33984375 165.6123046875 69.5693359375C165.6123046875 77.7470703125 160.9541015625 82.25 150.55078125 82.25Z" fill="#FFFFFF"/>
<path d="M230.150390625 123.138671875C248.9384765625 123.138671875 261.412109375 111.751953125 261.412109375 95.2412109375V44.880859375H247.5927734375V94.1025390625C247.5927734375 103.78125 240.8125 110.7685546875 230.150390625 110.7685546875C219.48828125 110.7685546875 212.7080078125 103.78125 212.7080078125 94.1025390625V44.880859375H198.888671875V95.2412109375C198.888671875 111.751953125 211.2587890625 123.138671875 230.150390625 123.138671875Z" fill="#FFFFFF"/>
<path d="M315.75390625 123.03515625C333.97265625 123.03515625 346.1875 111.0791015625 348.3095703125 96.328125H334.3349609375C332.5751953125 105.4375 325.1220703125 110.6650390625 315.9091796875 110.6650390625C303.3837890625 110.6650390625 294.326171875 101.193359375 294.326171875 83.4921875C294.326171875 65.998046875 303.33203125 56.2158203125 315.9609375 56.2158203125C325.173828125 56.2158203125 332.626953125 61.443359375 334.3349609375 70.552734375H348.2578125C345.8251953125 53.6796875 332.6787109375 43.845703125 315.75390625 43.845703125C295.6201171875 43.845703125 280.455078125 58.544921875 280.455078125 83.4921875C280.455078125 108.3359375 295.46484375 123.03515625 315.75390625 123.03515625Z" fill="#FFFFFF"/>
<path d="M 231.92 22.36 L 248.88 4.34" stroke="#D4A75A" stroke-width="10.60" stroke-linecap="square"/>
<circle cx="370.19" cy="109.28" r="6.89" fill="#D4A75A"/>
<path d="M44.4501953125 164.0H46.48046875V157.0126953125C46.48046875 156.3359375 46.41015625 154.982421875 46.3310546875 153.3388671875C47.2802734375 155.0966796875 47.78125 156.001953125 48.4228515625 157.0302734375L52.84375 164.0H55.1640625V150.904296875H53.1337890625V158.357421875C53.1337890625 159.11328125 53.1689453125 160.3349609375 53.265625 161.6005859375C52.685546875 160.34375 52.0966796875 159.3505859375 51.6923828125 158.7001953125L46.76171875 150.904296875H44.4501953125Z" fill="#D4A75A"/>
<path d="M65.66640625 164.17578125C68.8392578125 164.17578125 71.133203125 162.1015625 71.133203125 158.7880859375V157.28515625H65.965234375V158.9375H69.1732421875C69.129296875 161.029296875 67.7494140625 162.34765625 65.6751953125 162.34765625C63.363671875 162.34765625 61.69375 160.607421875 61.69375 157.4521484375C61.69375 154.2880859375 63.3900390625 152.556640625 65.59609375 152.556640625C67.31875 152.556640625 68.4876953125 153.5146484375 68.9623046875 155.0439453125H71.0189453125C70.5794921875 152.4951171875 68.3998046875 150.728515625 65.578515625 150.728515625C62.1859375 150.728515625 59.707421875 153.27734375 59.707421875 157.4609375C59.707421875 161.6005859375 62.1068359375 164.17578125 65.66640625 164.17578125Z" fill="#D4A75A"/>
<path d="M80.9412109375 164.2021484375C84.0701171875 164.2021484375 86.1443359375 162.2509765625 86.1443359375 159.5V150.904296875H84.131640625V159.3330078125C84.131640625 161.099609375 82.9099609375 162.3828125 80.9412109375 162.3828125C78.963671875 162.3828125 77.7244140625 161.099609375 77.7244140625 159.3330078125V150.904296875H75.7205078125V159.5C75.7205078125 162.2509765625 77.7859375 164.2021484375 80.9412109375 164.2021484375Z" fill="#D4A75A"/>
<path d="M94.96796875 164.0H96.971875V158.7880859375L101.7794921875 150.904296875H99.450390625L97.0158203125 155.0791015625C96.6291015625 155.73828125 96.3126953125 156.3271484375 95.9875 157.1181640625C95.6623046875 156.3447265625 95.3458984375 155.7646484375 94.9416015625 155.0791015625L92.4806640625 150.904296875H90.1427734375L94.96796875 158.7880859375Z" fill="#D4A75A"/>
<path d="M105.77792968749999 164.0H114.07480468749999V162.27734375H107.78183593749999V158.2431640625H113.58261718749999V156.529296875H107.78183593749999V152.626953125H114.02207031249999V150.904296875H105.77792968749999ZM108.72226562499999 149.744140625 109.98789062499999 148.2236328125 111.23593749999999 149.744140625H113.04648437499999V149.673828125L110.82285156249999 147.2392578125H109.14414062499999L106.92050781249999 149.673828125V149.744140625ZM111.14804687499999 146.31640625C112.07089843749999 146.31640625 112.65976562499999 145.5869140625 112.69492187499999 144.4091796875H111.49960937499999C111.44687499999999 144.9189453125 111.29746093749999 145.138671875 110.97226562499999 145.138671875C110.37460937499999 145.138671875 109.79453124999999 144.3740234375 108.81015624999999 144.3740234375C107.81699218749999 144.3740234375 107.28085937499999 145.138671875 107.24570312499999 146.28125H108.46738281249999C108.48496093749999 145.9033203125 108.64316406249999 145.560546875 108.96835937499999 145.560546875C109.45175781249999 145.560546875 110.19882812499999 146.31640625 111.14804687499999 146.31640625Z" fill="#D4A75A"/>
<path d="M118.73242187499999 164.0H120.76269531249999V157.0126953125C120.76269531249999 156.3359375 120.69238281249999 154.982421875 120.61328124999999 153.3388671875C121.56249999999999 155.0966796875 122.06347656249999 156.001953125 122.70507812499999 157.0302734375L127.12597656249999 164.0H129.4462890625V150.904296875H127.41601562499999V158.357421875C127.41601562499999 159.11328125 127.45117187499999 160.3349609375 127.54785156249999 161.6005859375C126.96777343749999 160.34375 126.37890624999999 159.3505859375 125.97460937499999 158.7001953125L121.04394531249999 150.904296875H118.73242187499999Z" fill="#D4A75A"/>
<path d="M141.3455078125 164.0H143.2966796875V156.951171875C143.2966796875 155.94921875 143.252734375 154.2705078125 143.217578125 152.8994140625C143.7185546875 154.5166015625 144.237109375 156.16015625 144.5359375 156.951171875L147.2517578125 164.0H148.965625L151.6462890625 156.951171875C151.9451171875 156.1337890625 152.4900390625 154.4462890625 152.955859375 152.85546875C152.9294921875 154.314453125 152.885546875 155.984375 152.885546875 156.951171875V164.0H154.8806640625V150.904296875H151.9099609375L149.0974609375 158.4189453125C148.842578125 159.1396484375 148.4294921875 160.5986328125 148.121875 161.767578125C147.823046875 160.572265625 147.4099609375 159.1220703125 147.155078125 158.4189453125L144.2986328125 150.904296875H141.3455078125Z" fill="#D4A75A"/>
<path d="M161.87617187499998 150.904296875H159.87226562499998V164.0H161.87617187499998Z" fill="#D4A75A"/>
<path d="M166.87656249999998 164.0H168.90683593749998V157.0126953125C168.90683593749998 156.3359375 168.83652343749998 154.982421875 168.75742187499998 153.3388671875C169.70664062499998 155.0966796875 170.20761718749998 156.001953125 170.84921874999998 157.0302734375L175.27011718749998 164.0H177.59042968749998V150.904296875H175.56015624999998V158.357421875C175.56015624999998 159.11328125 175.59531249999998 160.3349609375 175.69199218749998 161.6005859375C175.11191406249998 160.34375 174.52304687499998 159.3505859375 174.11874999999998 158.7001953125L169.18808593749998 150.904296875H166.87656249999998Z" fill="#D4A75A"/>
<path d="M182.59082031249997 164.0H184.59472656249997V158.1640625H191.08105468749997V164.0H193.09374999999997V150.904296875H191.08105468749997V156.44140625H184.59472656249997V150.904296875H182.59082031249997Z" fill="#D4A75A"/>
<path d="M204.33378906249996 152.626953125H208.42070312499996V164.0H210.43339843749996V152.626953125H214.50273437499996V150.904296875H204.33378906249996Z" fill="#D4A75A"/>
<path d="M218.84394531249995 164.0H220.84785156249995V159.0517578125H223.51972656249995C223.55488281249995 159.0517578125 223.59882812499995 159.0517578125 223.63398437499995 159.0517578125L226.28828124999995 164.0H228.56464843749995L225.68183593749995 158.708984375C227.27265624999995 158.111328125 228.07246093749995 156.775390625 228.07246093749995 155.017578125C228.07246093749995 152.6005859375 226.56953124999995 150.904296875 223.53730468749995 150.904296875H218.84394531249995ZM220.84785156249995 157.337890625V152.6181640625H223.30878906249995C225.24238281249995 152.6181640625 226.04218749999995 153.541015625 226.04218749999995 155.017578125C226.04218749999995 156.4853515625 225.24238281249995 157.337890625 223.32636718749995 157.337890625Z" fill="#D4A75A"/>
<path d="M237.82773437499995 164.2021484375C240.95664062499995 164.2021484375 243.03085937499995 162.2509765625 243.03085937499995 159.5V150.904296875H241.01816406249995V159.3330078125C241.01816406249995 161.099609375 239.79648437499995 162.3828125 237.82773437499995 162.3828125C235.85019531249995 162.3828125 234.61093749999995 161.099609375 234.61093749999995 159.3330078125V150.904296875H232.60703124999995V159.5C232.60703124999995 162.2509765625 234.67246093749995 164.2021484375 237.82773437499995 164.2021484375ZM237.04550781249995 149.6298828125H238.52207031249995L240.26230468749995 147.001953125H238.26718749999995Z" fill="#D4A75A"/>
<path d="M253.47167968749994 164.17578125C256.36328124999994 164.17578125 258.47265624999994 162.34765625 258.87695312499994 159.7548828125H256.85546874999994C256.52148437499994 161.4248046875 255.12402343749994 162.34765625 253.48925781249994 162.34765625C251.24804687499994 162.34765625 249.56054687499994 160.642578125 249.56054687499994 157.4609375C249.56054687499994 154.296875 251.23925781249994 152.556640625 253.48925781249994 152.556640625C255.12402343749994 152.556640625 256.52148437499994 153.470703125 256.85546874999994 155.140625H258.86816406249994C258.42871093749994 152.36328125 256.23144531249994 150.728515625 253.47167968749994 150.728515625C250.07910156249994 150.728515625 247.57421874999994 153.259765625 247.57421874999994 157.4609375C247.57421874999994 161.64453125 250.07031249999994 164.17578125 253.47167968749994 164.17578125Z" fill="#D4A75A"/>
<path d="M47.7607421875 207.0C51.07861328125 207.0 53.0048828125 204.94189453125 53.0048828125 201.52880859375C53.0048828125 198.1376953125 51.07861328125 196.0869140625 47.86328125 196.0869140625H44.20849609375V207.0ZM45.87841796875 205.53515625V197.5517578125H47.75341796875C50.1337890625 197.5517578125 51.3642578125 198.96533203125 51.3642578125 201.52880859375C51.3642578125 204.1142578125 50.1337890625 205.53515625 47.66552734375 205.53515625Z" fill="#FFFFFF"/>
<path d="M57.39873046875 207.0H59.2078125L60.18193359375 204.12158203125H64.47392578125L65.47734375 207.0H67.28642578125L63.33134765625 196.0869140625H61.28056640625ZM60.6580078125 202.72998046875 61.26591796875 200.92822265625C61.5369140625 200.09326171875 61.873828125 198.9580078125 62.2986328125 197.39794921875C62.73076171875 198.943359375 63.0603515625 200.056640625 63.3533203125 200.92822265625L63.983203125 202.72998046875Z" fill="#FFFFFF"/>
<path d="M71.519140625 197.5224609375H74.92490234375V207.0H76.6021484375V197.5224609375H79.99326171875V196.0869140625H71.519140625Z" fill="#FFFFFF"/>
<path d="M84.22597656250001 207.0H86.03505859375001L87.00917968750001 204.12158203125H91.30117187500001L92.30458984375001 207.0H94.11367187500001L90.15859375000001 196.0869140625H88.10781250000001ZM87.48525390625001 202.72998046875 88.09316406250001 200.92822265625C88.36416015625001 200.09326171875 88.70107421875001 198.9580078125 89.12587890625001 197.39794921875C89.55800781250001 198.943359375 89.88759765625001 200.056640625 90.18056640625001 200.92822265625L90.81044921875001 202.72998046875Z" fill="#FFFFFF"/>
<path d="M 110.49 209.00 L 121.49 187.00" stroke="#D4A75A" stroke-width="3.2" stroke-linecap="square"/>
<path d="M142.35781250000002 207.18310546875C144.92128906250002 207.18310546875 146.40078125000002 205.83544921875 146.40078125000002 203.982421875C146.40078125000002 202.01220703125 144.65029296875002 201.26513671875 143.25869140625002 200.90625L142.19667968750002 200.6279296875C141.36171875000002 200.408203125 140.23378906250002 200.02001953125 140.23378906250002 198.9873046875C140.23378906250002 198.064453125 141.06875000000002 197.390625 142.39443359375002 197.390625C143.63222656250002 197.390625 144.51845703125002 197.9619140625 144.62832031250002 198.9580078125H146.25429687500002C146.20302734375002 197.22216796875 144.67226562500002 195.9404296875 142.43105468750002 195.9404296875C140.23378906250002 195.9404296875 138.56386718750002 197.19287109375 138.56386718750002 199.08251953125C138.56386718750002 200.57666015625 139.61855468750002 201.4921875 141.40566406250002 201.96826171875L142.68007812500002 202.31982421875C143.85195312500002 202.634765625 144.75283203125002 203.00830078125 144.75283203125002 203.96044921875C144.75283203125002 205.01513671875 143.73476562500002 205.71826171875 142.35048828125002 205.71826171875C141.09072265625002 205.71826171875 140.03603515625002 205.16162109375 139.94082031250002 203.9677734375H138.26357421875002C138.36611328125002 205.9599609375 139.90419921875002 207.18310546875 142.35781250000002 207.18310546875Z" fill="#FFFFFF"/>
<path d="M154.7716796875 207.0H156.4416015625V202.65673828125L160.44794921875 196.0869140625H158.50703125L156.47822265625 199.56591796875C156.15595703125 200.115234375 155.89228515625 200.60595703125 155.6212890625 201.26513671875C155.35029296875 200.62060546875 155.08662109375 200.13720703125 154.74970703125 199.56591796875L152.69892578125 196.0869140625H150.75068359375L154.7716796875 202.65673828125Z" fill="#FFFFFF"/>
<path d="M168.89208984375 207.18310546875C171.45556640625 207.18310546875 172.93505859375 205.83544921875 172.93505859375 203.982421875C172.93505859375 202.01220703125 171.1845703125 201.26513671875 169.79296875 200.90625L168.73095703125 200.6279296875C167.89599609375 200.408203125 166.76806640625 200.02001953125 166.76806640625 198.9873046875C166.76806640625 198.064453125 167.60302734375 197.390625 168.9287109375 197.390625C170.16650390625 197.390625 171.052734375 197.9619140625 171.16259765625 198.9580078125H172.78857421875C172.7373046875 197.22216796875 171.20654296875 195.9404296875 168.96533203125 195.9404296875C166.76806640625 195.9404296875 165.09814453125 197.19287109375 165.09814453125 199.08251953125C165.09814453125 200.57666015625 166.15283203125 201.4921875 167.93994140625 201.96826171875L169.21435546875 202.31982421875C170.38623046875 202.634765625 171.287109375 203.00830078125 171.287109375 203.96044921875C171.287109375 205.01513671875 170.26904296875 205.71826171875 168.884765625 205.71826171875C167.625 205.71826171875 166.5703125 205.16162109375 166.47509765625 203.9677734375H164.7978515625C164.900390625 205.9599609375 166.4384765625 207.18310546875 168.89208984375 207.18310546875Z" fill="#FFFFFF"/>
<path d="M177.57060546875 197.5224609375H180.9763671875V207.0H182.65361328125V197.5224609375H186.0447265625V196.0869140625H177.57060546875Z" fill="#FFFFFF"/>
<path d="M191.11240234374998 207.0H198.02646484374998V205.564453125H192.78232421874998V202.20263671875H197.61630859374998V200.7744140625H192.78232421874998V197.5224609375H197.98251953124998V196.0869140625H191.11240234374998Z" fill="#FFFFFF"/>
<path d="M203.35781249999997 207.0H204.98378906249997V201.1259765625C204.98378906249997 200.291015625 204.94716796874997 198.89208984375 204.91787109374997 197.74951171875C205.33535156249997 199.09716796875 205.76748046874997 200.466796875 206.01650390624997 201.1259765625L208.27968749999997 207.0H209.70791015624997L211.94179687499997 201.1259765625C212.19082031249997 200.44482421875 212.64492187499997 199.03857421875 213.03310546874997 197.712890625C213.01113281249997 198.9287109375 212.97451171874997 200.3203125 212.97451171874997 201.1259765625V207.0H214.63710937499997V196.0869140625H212.16152343749997L209.81777343749997 202.34912109375C209.60537109374997 202.94970703125 209.26113281249997 204.16552734375 209.00478515624997 205.1396484375C208.75576171874997 204.1435546875 208.41152343749997 202.93505859375 208.19912109374997 202.34912109375L205.81874999999997 196.0869140625H203.35781249999997Z" fill="#FFFFFF"/>
<path d="M223.90888671874995 207.18310546875C226.47236328124995 207.18310546875 227.95185546874995 205.83544921875 227.95185546874995 203.982421875C227.95185546874995 202.01220703125 226.20136718749995 201.26513671875 224.80976562499995 200.90625L223.74775390624995 200.6279296875C222.91279296874995 200.408203125 221.78486328124995 200.02001953125 221.78486328124995 198.9873046875C221.78486328124995 198.064453125 222.61982421874995 197.390625 223.94550781249995 197.390625C225.18330078124995 197.390625 226.06953124999995 197.9619140625 226.17939453124995 198.9580078125H227.80537109374995C227.75410156249995 197.22216796875 226.22333984374995 195.9404296875 223.98212890624995 195.9404296875C221.78486328124995 195.9404296875 220.11494140624995 197.19287109375 220.11494140624995 199.08251953125C220.11494140624995 200.57666015625 221.16962890624995 201.4921875 222.95673828124995 201.96826171875L224.23115234374995 202.31982421875C225.40302734374995 202.634765625 226.30390624999995 203.00830078125 226.30390624999995 203.96044921875C226.30390624999995 205.01513671875 225.28583984374995 205.71826171875 223.90156249999995 205.71826171875C222.64179687499995 205.71826171875 221.58710937499995 205.16162109375 221.49189453124995 203.9677734375H219.81464843749995C219.91718749999995 205.9599609375 221.45527343749995 207.18310546875 223.90888671874995 207.18310546875Z" fill="#FFFFFF"/>
<path d="M 244.73 209.00 L 255.73 187.00" stroke="#D4A75A" stroke-width="3.2" stroke-linecap="square"/>
<path d="M272.93671874999995 207.0H274.60664062499995V203.1767578125H276.83320312499995C279.36738281249995 203.1767578125 280.62714843749995 201.64599609375 280.62714843749995 199.6318359375C280.62714843749995 197.61767578125 279.37470703124995 196.0869140625 276.84785156249995 196.0869140625H272.93671874999995ZM274.60664062499995 201.76318359375V197.51513671875H276.65742187499995C278.27607421874995 197.51513671875 278.93525390624995 198.4013671875 278.93525390624995 199.6318359375C278.93525390624995 200.8623046875 278.27607421874995 201.76318359375 276.67207031249995 201.76318359375Z" fill="#FFFFFF"/>
<path d="M285.76074218749994 207.0H287.43066406249994V202.87646484375H289.65722656249994C289.68652343749994 202.87646484375 289.72314453124994 202.87646484375 289.75244140624994 202.87646484375L291.96435546874994 207.0H293.86132812499994L291.45898437499994 202.5908203125C292.78466796874994 202.0927734375 293.45117187499994 200.9794921875 293.45117187499994 199.5146484375C293.45117187499994 197.50048828125 292.19873046874994 196.0869140625 289.67187499999994 196.0869140625H285.76074218749994ZM287.43066406249994 201.4482421875V197.51513671875H289.48144531249994C291.09277343749994 197.51513671875 291.75927734374994 198.2841796875 291.75927734374994 199.5146484375C291.75927734374994 200.73779296875 291.09277343749994 201.4482421875 289.49609374999994 201.4482421875Z" fill="#FFFFFF"/>
<path d="M303.22832031249993 207.146484375C306.05546874999993 207.146484375 308.14287109374993 205.037109375 308.14287109374993 201.55078125C308.14287109374993 198.0498046875 306.05546874999993 195.9404296875 303.22832031249993 195.9404296875C300.39384765624993 195.9404296875 298.29912109374993 198.0498046875 298.29912109374993 201.55078125C298.29912109374993 205.037109375 300.39384765624993 207.146484375 303.22832031249993 207.146484375ZM303.22832031249993 205.623046875C301.35332031249993 205.623046875 299.95439453124993 204.1875 299.95439453124993 201.55078125C299.95439453124993 198.90673828125 301.35332031249993 197.4638671875 303.22832031249993 197.4638671875C305.08867187499993 197.4638671875 306.48759765624993 198.8994140625 306.48759765624993 201.55078125C306.48759765624993 204.1875 305.08867187499993 205.623046875 303.22832031249993 205.623046875Z" fill="#FFFFFF"/>
<path d="M316.9312499999999 207.0C320.2491210937499 207.0 322.1753906249999 204.94189453125 322.1753906249999 201.52880859375C322.1753906249999 198.1376953125 320.2491210937499 196.0869140625 317.0337890624999 196.0869140625H313.3790039062499V207.0ZM315.0489257812499 205.53515625V197.5517578125H316.9239257812499C319.3042968749999 197.5517578125 320.5347656249999 198.96533203125 320.5347656249999 201.52880859375C320.5347656249999 204.1142578125 319.3042968749999 205.53515625 316.8360351562499 205.53515625Z" fill="#FFFFFF"/>
<path d="M331.7547851562499 207.16845703125C334.3622070312499 207.16845703125 336.0907226562499 205.54248046875 336.0907226562499 203.25V196.0869140625H334.4134765624999V203.11083984375C334.4134765624999 204.5830078125 333.3954101562499 205.65234375 331.7547851562499 205.65234375C330.1068359374999 205.65234375 329.0741210937499 204.5830078125 329.0741210937499 203.11083984375V196.0869140625H327.4041992187499V203.25C327.4041992187499 205.54248046875 329.1253906249999 207.16845703125 331.7547851562499 207.16845703125Z" fill="#FFFFFF"/>
<path d="M346.2414062499999 207.146484375C348.6510742187499 207.146484375 350.4088867187499 205.623046875 350.7458007812499 203.46240234375H349.0612304687499C348.7829101562499 204.85400390625 347.6183593749999 205.623046875 346.2560546874999 205.623046875C344.3883789062499 205.623046875 342.9821289062499 204.2021484375 342.9821289062499 201.55078125C342.9821289062499 198.9140625 344.3810546874999 197.4638671875 346.2560546874999 197.4638671875C347.6183593749999 197.4638671875 348.7829101562499 198.2255859375 349.0612304687499 199.6171875H350.7384765624999C350.3722656249999 197.302734375 348.5412109374999 195.9404296875 346.2414062499999 195.9404296875C343.4142578124999 195.9404296875 341.3268554687499 198.0498046875 341.3268554687499 201.55078125C341.3268554687499 205.037109375 343.4069335937499 207.146484375 346.2414062499999 207.146484375Z" fill="#FFFFFF"/>
<path d="M355.3593749999999 197.5224609375H358.7651367187499V207.0H360.4423828124999V197.5224609375H363.8334960937499V196.0869140625H355.3593749999999Z" fill="#FFFFFF"/>
</svg>
